<mxfile host="app.diagrams.net" modified="2021-01-29T16:08:49.451Z" agent="5.0 (Windows NT 10.0; Win64; x64) AppleWebKit/537.36 (KHTML, like Gecko) Chrome/88.0.4324.104 Safari/537.36" etag="oD4uRv0_Rw9JY5MN7phE" version="14.2.8" type="github">
  <diagram id="C5RBs43oDa-KdzZeNtuy" name="Page-1">
    <mxGraphModel dx="1632" dy="850" grid="1" gridSize="10" guides="1" tooltips="1" connect="1" arrows="1" fold="1" page="1" pageScale="1" pageWidth="827" pageHeight="1169" math="0" shadow="0">
      <root>
        <mxCell id="WIyWlLk6GJQsqaUBKTNV-0" />
        <mxCell id="WIyWlLk6GJQsqaUBKTNV-1" parent="WIyWlLk6GJQsqaUBKTNV-0" />
        <mxCell id="wwaz8Kwd46Dfi81M2qPf-13" value="com.carapp.dto" style="swimlane;" vertex="1" parent="WIyWlLk6GJQsqaUBKTNV-1">
          <mxGeometry x="470" y="40" width="320" height="360" as="geometry" />
        </mxCell>
        <mxCell id="wwaz8Kwd46Dfi81M2qPf-9" value="Car" style="swimlane;fontStyle=1;align=center;verticalAlign=top;childLayout=stackLayout;horizontal=1;startSize=26;horizontalStack=0;resizeParent=1;resizeParentMax=0;resizeLast=0;collapsible=1;marginBottom=0;" vertex="1" parent="wwaz8Kwd46Dfi81M2qPf-13">
          <mxGeometry x="56" y="40" width="160" height="148" as="geometry" />
        </mxCell>
        <mxCell id="wwaz8Kwd46Dfi81M2qPf-10" value="make : string&#xa;color : string&#xa;model : string&#xa;year : int&#xa;carId : Guid" style="text;strokeColor=none;fillColor=none;align=left;verticalAlign=top;spacingLeft=4;spacingRight=4;overflow=hidden;rotatable=0;points=[[0,0.5],[1,0.5]];portConstraint=eastwest;" vertex="1" parent="wwaz8Kwd46Dfi81M2qPf-9">
          <mxGeometry y="26" width="160" height="114" as="geometry" />
        </mxCell>
        <mxCell id="wwaz8Kwd46Dfi81M2qPf-11" value="" style="line;strokeWidth=1;fillColor=none;align=left;verticalAlign=middle;spacingTop=-1;spacingLeft=3;spacingRight=3;rotatable=0;labelPosition=right;points=[];portConstraint=eastwest;" vertex="1" parent="wwaz8Kwd46Dfi81M2qPf-9">
          <mxGeometry y="140" width="160" height="8" as="geometry" />
        </mxCell>
        <mxCell id="wwaz8Kwd46Dfi81M2qPf-14" value="Vehicle" style="swimlane;fontStyle=1;align=center;verticalAlign=top;childLayout=stackLayout;horizontal=1;startSize=26;horizontalStack=0;resizeParent=1;resizeParentMax=0;resizeLast=0;collapsible=1;marginBottom=0;" vertex="1" parent="wwaz8Kwd46Dfi81M2qPf-13">
          <mxGeometry x="106" y="198" width="160" height="148" as="geometry" />
        </mxCell>
        <mxCell id="wwaz8Kwd46Dfi81M2qPf-15" value="carId : guid&#xa;specimenId : guid&#xa;lat : double&#xa;long : double&#xa;picture : string" style="text;strokeColor=none;fillColor=none;align=left;verticalAlign=top;spacingLeft=4;spacingRight=4;overflow=hidden;rotatable=0;points=[[0,0.5],[1,0.5]];portConstraint=eastwest;" vertex="1" parent="wwaz8Kwd46Dfi81M2qPf-14">
          <mxGeometry y="26" width="160" height="114" as="geometry" />
        </mxCell>
        <mxCell id="wwaz8Kwd46Dfi81M2qPf-16" value="" style="line;strokeWidth=1;fillColor=none;align=left;verticalAlign=middle;spacingTop=-1;spacingLeft=3;spacingRight=3;rotatable=0;labelPosition=right;points=[];portConstraint=eastwest;" vertex="1" parent="wwaz8Kwd46Dfi81M2qPf-14">
          <mxGeometry y="140" width="160" height="8" as="geometry" />
        </mxCell>
        <mxCell id="wwaz8Kwd46Dfi81M2qPf-17" value="Container" style="swimlane;" vertex="1" parent="WIyWlLk6GJQsqaUBKTNV-1">
          <mxGeometry x="30" y="40" width="370" height="550" as="geometry" />
        </mxCell>
        <mxCell id="wwaz8Kwd46Dfi81M2qPf-18" value="MainActivity" style="swimlane;fontStyle=1;align=center;verticalAlign=top;childLayout=stackLayout;horizontal=1;startSize=26;horizontalStack=0;resizeParent=1;resizeParentMax=0;resizeLast=0;collapsible=1;marginBottom=0;" vertex="1" parent="wwaz8Kwd46Dfi81M2qPf-17">
          <mxGeometry x="20" y="50" width="160" height="34" as="geometry" />
        </mxCell>
        <mxCell id="wwaz8Kwd46Dfi81M2qPf-20" value="" style="line;strokeWidth=1;fillColor=none;align=left;verticalAlign=middle;spacingTop=-1;spacingLeft=3;spacingRight=3;rotatable=0;labelPosition=right;points=[];portConstraint=eastwest;" vertex="1" parent="wwaz8Kwd46Dfi81M2qPf-18">
          <mxGeometry y="26" width="160" height="8" as="geometry" />
        </mxCell>
        <mxCell id="wwaz8Kwd46Dfi81M2qPf-22" value="MainViewModel&#xa;" style="swimlane;fontStyle=1;align=center;verticalAlign=top;childLayout=stackLayout;horizontal=1;startSize=26;horizontalStack=0;resizeParent=1;resizeParentMax=0;resizeLast=0;collapsible=1;marginBottom=0;" vertex="1" parent="wwaz8Kwd46Dfi81M2qPf-17">
          <mxGeometry x="200" y="76" width="160" height="34" as="geometry" />
        </mxCell>
        <mxCell id="wwaz8Kwd46Dfi81M2qPf-23" value="" style="line;strokeWidth=1;fillColor=none;align=left;verticalAlign=middle;spacingTop=-1;spacingLeft=3;spacingRight=3;rotatable=0;labelPosition=right;points=[];portConstraint=eastwest;" vertex="1" parent="wwaz8Kwd46Dfi81M2qPf-22">
          <mxGeometry y="26" width="160" height="8" as="geometry" />
        </mxCell>
        <mxCell id="wwaz8Kwd46Dfi81M2qPf-26" value="ContextAwareViewModel" style="swimlane;fontStyle=1;align=center;verticalAlign=top;childLayout=stackLayout;horizontal=1;startSize=26;horizontalStack=0;resizeParent=1;resizeParentMax=0;resizeLast=0;collapsible=1;marginBottom=0;" vertex="1" parent="wwaz8Kwd46Dfi81M2qPf-17">
          <mxGeometry x="20" y="150" width="200" height="34" as="geometry" />
        </mxCell>
        <mxCell id="wwaz8Kwd46Dfi81M2qPf-27" value="" style="line;strokeWidth=1;fillColor=none;align=left;verticalAlign=middle;spacingTop=-1;spacingLeft=3;spacingRight=3;rotatable=0;labelPosition=right;points=[];portConstraint=eastwest;" vertex="1" parent="wwaz8Kwd46Dfi81M2qPf-26">
          <mxGeometry y="26" width="200" height="8" as="geometry" />
        </mxCell>
        <mxCell id="wwaz8Kwd46Dfi81M2qPf-28" value="RetroClientInstance&#xa;" style="swimlane;fontStyle=1;align=center;verticalAlign=top;childLayout=stackLayout;horizontal=1;startSize=26;horizontalStack=0;resizeParent=1;resizeParentMax=0;resizeLast=0;collapsible=1;marginBottom=0;" vertex="1" parent="wwaz8Kwd46Dfi81M2qPf-17">
          <mxGeometry x="140" y="220" width="160" height="34" as="geometry" />
        </mxCell>
        <mxCell id="wwaz8Kwd46Dfi81M2qPf-29" value="" style="line;strokeWidth=1;fillColor=none;align=left;verticalAlign=middle;spacingTop=-1;spacingLeft=3;spacingRight=3;rotatable=0;labelPosition=right;points=[];portConstraint=eastwest;" vertex="1" parent="wwaz8Kwd46Dfi81M2qPf-28">
          <mxGeometry y="26" width="160" height="8" as="geometry" />
        </mxCell>
        <mxCell id="wwaz8Kwd46Dfi81M2qPf-30" value="VehicleDetailActivity" style="swimlane;fontStyle=1;align=center;verticalAlign=top;childLayout=stackLayout;horizontal=1;startSize=26;horizontalStack=0;resizeParent=1;resizeParentMax=0;resizeLast=0;collapsible=1;marginBottom=0;" vertex="1" parent="wwaz8Kwd46Dfi81M2qPf-17">
          <mxGeometry x="40" y="330" width="160" height="34" as="geometry" />
        </mxCell>
        <mxCell id="wwaz8Kwd46Dfi81M2qPf-31" value="" style="line;strokeWidth=1;fillColor=none;align=left;verticalAlign=middle;spacingTop=-1;spacingLeft=3;spacingRight=3;rotatable=0;labelPosition=right;points=[];portConstraint=eastwest;" vertex="1" parent="wwaz8Kwd46Dfi81M2qPf-30">
          <mxGeometry y="26" width="160" height="8" as="geometry" />
        </mxCell>
        <mxCell id="wwaz8Kwd46Dfi81M2qPf-32" value="AddVehicleActivity" style="swimlane;fontStyle=1;align=center;verticalAlign=top;childLayout=stackLayout;horizontal=1;startSize=26;horizontalStack=0;resizeParent=1;resizeParentMax=0;resizeLast=0;collapsible=1;marginBottom=0;" vertex="1" parent="wwaz8Kwd46Dfi81M2qPf-17">
          <mxGeometry x="140" y="410" width="160" height="34" as="geometry" />
        </mxCell>
        <mxCell id="wwaz8Kwd46Dfi81M2qPf-33" value="" style="line;strokeWidth=1;fillColor=none;align=left;verticalAlign=middle;spacingTop=-1;spacingLeft=3;spacingRight=3;rotatable=0;labelPosition=right;points=[];portConstraint=eastwest;" vertex="1" parent="wwaz8Kwd46Dfi81M2qPf-32">
          <mxGeometry y="26" width="160" height="8" as="geometry" />
        </mxCell>
        <mxCell id="wwaz8Kwd46Dfi81M2qPf-37" value="" style="endArrow=none;html=1;exitX=0.928;exitY=0.783;exitDx=0;exitDy=0;exitPerimeter=0;" edge="1" parent="wwaz8Kwd46Dfi81M2qPf-17" source="wwaz8Kwd46Dfi81M2qPf-20">
          <mxGeometry width="50" height="50" relative="1" as="geometry">
            <mxPoint x="170" y="90" as="sourcePoint" />
            <mxPoint x="200" y="100" as="targetPoint" />
          </mxGeometry>
        </mxCell>
        <mxCell id="wwaz8Kwd46Dfi81M2qPf-39" value="" style="endArrow=none;html=1;exitX=1;exitY=0;exitDx=0;exitDy=0;" edge="1" parent="wwaz8Kwd46Dfi81M2qPf-17" source="wwaz8Kwd46Dfi81M2qPf-28">
          <mxGeometry width="50" height="50" relative="1" as="geometry">
            <mxPoint x="249.99999999999977" y="160" as="sourcePoint" />
            <mxPoint x="300" y="110" as="targetPoint" />
          </mxGeometry>
        </mxCell>
        <mxCell id="wwaz8Kwd46Dfi81M2qPf-40" value="" style="endArrow=none;html=1;exitX=0.398;exitY=-0.045;exitDx=0;exitDy=0;exitPerimeter=0;" edge="1" parent="wwaz8Kwd46Dfi81M2qPf-17" source="wwaz8Kwd46Dfi81M2qPf-26">
          <mxGeometry width="50" height="50" relative="1" as="geometry">
            <mxPoint x="49.99999999999977" y="134" as="sourcePoint" />
            <mxPoint x="100" y="84" as="targetPoint" />
          </mxGeometry>
        </mxCell>
        <mxCell id="wwaz8Kwd46Dfi81M2qPf-35" value="" style="endArrow=none;html=1;entryX=0.008;entryY=0.125;entryDx=0;entryDy=0;entryPerimeter=0;exitX=1;exitY=0.25;exitDx=0;exitDy=0;" edge="1" parent="WIyWlLk6GJQsqaUBKTNV-1" source="wwaz8Kwd46Dfi81M2qPf-30" target="wwaz8Kwd46Dfi81M2qPf-14">
          <mxGeometry width="50" height="50" relative="1" as="geometry">
            <mxPoint x="370" y="440" as="sourcePoint" />
            <mxPoint x="420" y="390" as="targetPoint" />
          </mxGeometry>
        </mxCell>
        <mxCell id="wwaz8Kwd46Dfi81M2qPf-36" value="" style="endArrow=none;html=1;entryX=0.003;entryY=0.152;entryDx=0;entryDy=0;entryPerimeter=0;exitX=1;exitY=0.25;exitDx=0;exitDy=0;" edge="1" parent="WIyWlLk6GJQsqaUBKTNV-1" source="wwaz8Kwd46Dfi81M2qPf-32" target="wwaz8Kwd46Dfi81M2qPf-15">
          <mxGeometry width="50" height="50" relative="1" as="geometry">
            <mxPoint x="239.99999999999977" y="388.5" as="sourcePoint" />
            <mxPoint x="587.2800000000002" y="266.5" as="targetPoint" />
          </mxGeometry>
        </mxCell>
        <mxCell id="wwaz8Kwd46Dfi81M2qPf-38" value="" style="endArrow=none;html=1;exitX=1;exitY=1;exitDx=0;exitDy=0;entryX=0.01;entryY=0.369;entryDx=0;entryDy=0;entryPerimeter=0;" edge="1" parent="WIyWlLk6GJQsqaUBKTNV-1" source="wwaz8Kwd46Dfi81M2qPf-22" target="wwaz8Kwd46Dfi81M2qPf-10">
          <mxGeometry width="50" height="50" relative="1" as="geometry">
            <mxPoint x="475.9999999999998" y="180" as="sourcePoint" />
            <mxPoint x="526" y="130" as="targetPoint" />
          </mxGeometry>
        </mxCell>
        <mxCell id="wwaz8Kwd46Dfi81M2qPf-41" value="com.carapp.dto" style="swimlane;" vertex="1" parent="WIyWlLk6GJQsqaUBKTNV-1">
          <mxGeometry x="470" y="480" width="320" height="360" as="geometry" />
        </mxCell>
        <mxCell id="wwaz8Kwd46Dfi81M2qPf-48" value="«interface»&lt;br&gt;&lt;b&gt;ICarDAO&lt;/b&gt;" style="html=1;" vertex="1" parent="wwaz8Kwd46Dfi81M2qPf-41">
          <mxGeometry x="20" y="80" width="110" height="50" as="geometry" />
        </mxCell>
        <mxCell id="wwaz8Kwd46Dfi81M2qPf-49" value="«interface»&lt;br&gt;&lt;b&gt;IVehicleDAO&lt;/b&gt;" style="html=1;" vertex="1" parent="wwaz8Kwd46Dfi81M2qPf-41">
          <mxGeometry x="20" y="250" width="110" height="50" as="geometry" />
        </mxCell>
        <mxCell id="wwaz8Kwd46Dfi81M2qPf-50" value="AppDatabase&#xa;" style="swimlane;fontStyle=1;align=center;verticalAlign=top;childLayout=stackLayout;horizontal=1;startSize=26;horizontalStack=0;resizeParent=1;resizeParentMax=0;resizeLast=0;collapsible=1;marginBottom=0;" vertex="1" parent="wwaz8Kwd46Dfi81M2qPf-41">
          <mxGeometry x="150" y="160" width="160" height="34" as="geometry" />
        </mxCell>
        <mxCell id="wwaz8Kwd46Dfi81M2qPf-52" value="" style="line;strokeWidth=1;fillColor=none;align=left;verticalAlign=middle;spacingTop=-1;spacingLeft=3;spacingRight=3;rotatable=0;labelPosition=right;points=[];portConstraint=eastwest;" vertex="1" parent="wwaz8Kwd46Dfi81M2qPf-50">
          <mxGeometry y="26" width="160" height="8" as="geometry" />
        </mxCell>
        <mxCell id="wwaz8Kwd46Dfi81M2qPf-54" value="RoomDatabase" style="html=1;" vertex="1" parent="WIyWlLk6GJQsqaUBKTNV-1">
          <mxGeometry x="180" y="730" width="110" height="50" as="geometry" />
        </mxCell>
        <mxCell id="wwaz8Kwd46Dfi81M2qPf-62" value="" style="endArrow=none;html=1;entryX=0;entryY=0.5;entryDx=0;entryDy=0;exitX=1;exitY=0.25;exitDx=0;exitDy=0;" edge="1" parent="WIyWlLk6GJQsqaUBKTNV-1" target="wwaz8Kwd46Dfi81M2qPf-50">
          <mxGeometry width="50" height="50" relative="1" as="geometry">
            <mxPoint x="289.9999999999998" y="752" as="sourcePoint" />
            <mxPoint x="637.2800000000002" y="630" as="targetPoint" />
          </mxGeometry>
        </mxCell>
      </root>
    </mxGraphModel>
  </diagram>
</mxfile>
